<?xml version="1.0" standalone="no"?>
<!DOCTYPE svg PUBLIC "-//W3C//DTD SVG 20010904//EN"
 "http://www.w3.org/TR/2001/REC-SVG-20010904/DTD/svg10.dtd">
<svg version="1.0" xmlns="http://www.w3.org/2000/svg"
 width="1024.000000pt" height="1024.000000pt" viewBox="0 0 1024.000000 1024.000000"
 preserveAspectRatio="xMidYMid meet">

<g transform="translate(0.000000,1024.000000) scale(0.100000,-0.100000)"
fill="#FFFFFF" stroke="none">
<path d="M0 5120 l0 -5120 5120 0 5120 0 0 5120 0 5120 -5120 0 -5120 0 0
-5120z m5245 2884 c91 -9 219 -50 314 -99 258 -134 436 -361 497 -637 27 -118
23 -310 -9 -429 -44 -166 -123 -304 -247 -430 -307 -312 -782 -375 -1160 -154
-215 126 -373 330 -442 570 -20 70 -23 101 -22 250 0 155 3 178 27 258 115
375 430 634 824 676 77 8 100 8 218 -5z m260 -2278 c55 -9 145 -27 200 -40
698 -168 1178 -644 1330 -1322 52 -231 55 -296 55 -1246 l0 -878 -1970 0
-1970 0 0 858 c1 471 5 903 10 960 34 382 151 705 353 979 75 100 258 278 367
355 301 213 687 337 1109 357 169 8 384 -2 516 -23z"/>
<path d="M3993 5089 c-116 -24 -177 -162 -123 -274 26 -53 6 -38 470 -366 370
-261 453 -332 508 -436 79 -150 76 -119 82 -688 4 -449 7 -514 22 -540 36 -66
88 -95 168 -95 80 0 132 29 168 95 15 26 18 91 22 545 l5 515 26 67 c37 95 84
169 150 236 32 32 218 172 416 312 427 303 438 311 463 360 22 43 26 113 9
157 -13 35 -55 80 -93 100 -42 22 -124 20 -171 -5 -22 -11 -204 -138 -405
-281 -201 -144 -388 -273 -415 -286 -114 -57 -244 -56 -357 1 -29 15 -217 145
-420 290 -202 144 -378 269 -390 275 -32 18 -97 26 -135 18z"/>
</g>
</svg>
